<mxfile host="Electron" modified="2023-12-07T02:55:56.020Z" agent="Mozilla/5.0 (Windows NT 10.0; Win64; x64) AppleWebKit/537.36 (KHTML, like Gecko) draw.io/22.1.2 Chrome/114.0.5735.289 Electron/25.9.4 Safari/537.36" etag="34iOOerUYp8LU6K4L887" version="22.1.2" type="device">
  <diagram name="Page-1" id="3DZ1DMXpIPHAonK5FujJ">
    <mxGraphModel dx="934" dy="655" grid="1" gridSize="10" guides="1" tooltips="1" connect="1" arrows="1" fold="1" page="1" pageScale="1" pageWidth="850" pageHeight="1100" math="0" shadow="0">
      <root>
        <mxCell id="0" />
        <mxCell id="1" parent="0" />
        <mxCell id="-A6Hnksh4mpt81NmAGqT-50" value="" style="ellipse;whiteSpace=wrap;html=1;aspect=fixed;" vertex="1" parent="1">
          <mxGeometry x="773" y="640" width="20" height="20" as="geometry" />
        </mxCell>
        <mxCell id="-A6Hnksh4mpt81NmAGqT-44" value="" style="rounded=1;whiteSpace=wrap;html=1;" vertex="1" parent="1">
          <mxGeometry x="210" y="590" width="360" height="110" as="geometry" />
        </mxCell>
        <mxCell id="-A6Hnksh4mpt81NmAGqT-19" style="edgeStyle=orthogonalEdgeStyle;rounded=0;orthogonalLoop=1;jettySize=auto;html=1;entryX=0.5;entryY=0;entryDx=0;entryDy=0;endArrow=open;endFill=0;" edge="1" parent="1" source="-A6Hnksh4mpt81NmAGqT-11" target="-A6Hnksh4mpt81NmAGqT-18">
          <mxGeometry relative="1" as="geometry" />
        </mxCell>
        <mxCell id="-A6Hnksh4mpt81NmAGqT-20" value="[valid location(s) found]" style="edgeLabel;html=1;align=center;verticalAlign=middle;resizable=0;points=[];" vertex="1" connectable="0" parent="-A6Hnksh4mpt81NmAGqT-19">
          <mxGeometry x="0.0592" y="-1" relative="1" as="geometry">
            <mxPoint x="-1" y="-10" as="offset" />
          </mxGeometry>
        </mxCell>
        <mxCell id="-A6Hnksh4mpt81NmAGqT-11" value="" style="rounded=1;whiteSpace=wrap;html=1;" vertex="1" parent="1">
          <mxGeometry x="290" y="150" width="240" height="300" as="geometry" />
        </mxCell>
        <mxCell id="-A6Hnksh4mpt81NmAGqT-9" style="edgeStyle=orthogonalEdgeStyle;rounded=0;orthogonalLoop=1;jettySize=auto;html=1;exitX=1;exitY=0.5;exitDx=0;exitDy=0;entryX=0;entryY=0.5;entryDx=0;entryDy=0;endArrow=open;endFill=0;" edge="1" parent="1" source="-A6Hnksh4mpt81NmAGqT-1" target="-A6Hnksh4mpt81NmAGqT-3">
          <mxGeometry relative="1" as="geometry" />
        </mxCell>
        <mxCell id="-A6Hnksh4mpt81NmAGqT-10" value="[valid conditions]" style="edgeLabel;html=1;align=center;verticalAlign=middle;resizable=0;points=[];" vertex="1" connectable="0" parent="-A6Hnksh4mpt81NmAGqT-9">
          <mxGeometry x="0.0933" y="4" relative="1" as="geometry">
            <mxPoint x="20" y="-7" as="offset" />
          </mxGeometry>
        </mxCell>
        <mxCell id="-A6Hnksh4mpt81NmAGqT-1" value="Input Conditions" style="rounded=1;whiteSpace=wrap;html=1;" vertex="1" parent="1">
          <mxGeometry x="110" y="190" width="120" height="60" as="geometry" />
        </mxCell>
        <mxCell id="-A6Hnksh4mpt81NmAGqT-7" style="edgeStyle=orthogonalEdgeStyle;rounded=0;orthogonalLoop=1;jettySize=auto;html=1;exitX=0.5;exitY=1;exitDx=0;exitDy=0;endArrow=open;endFill=0;" edge="1" parent="1" source="-A6Hnksh4mpt81NmAGqT-3" target="-A6Hnksh4mpt81NmAGqT-4">
          <mxGeometry relative="1" as="geometry" />
        </mxCell>
        <mxCell id="-A6Hnksh4mpt81NmAGqT-3" value="Set Locations" style="rounded=1;whiteSpace=wrap;html=1;" vertex="1" parent="1">
          <mxGeometry x="390" y="190" width="120" height="60" as="geometry" />
        </mxCell>
        <mxCell id="-A6Hnksh4mpt81NmAGqT-8" value="" style="edgeStyle=orthogonalEdgeStyle;rounded=0;orthogonalLoop=1;jettySize=auto;html=1;endArrow=open;endFill=0;" edge="1" parent="1" source="-A6Hnksh4mpt81NmAGqT-4" target="-A6Hnksh4mpt81NmAGqT-6">
          <mxGeometry relative="1" as="geometry" />
        </mxCell>
        <mxCell id="-A6Hnksh4mpt81NmAGqT-4" value="Set Requirements" style="rounded=1;whiteSpace=wrap;html=1;" vertex="1" parent="1">
          <mxGeometry x="390" y="280" width="120" height="60" as="geometry" />
        </mxCell>
        <mxCell id="-A6Hnksh4mpt81NmAGqT-5" value="" style="html=1;verticalAlign=bottom;startArrow=circle;startFill=1;endArrow=open;startSize=6;endSize=8;curved=0;rounded=0;" edge="1" parent="1">
          <mxGeometry width="80" relative="1" as="geometry">
            <mxPoint x="60" y="220" as="sourcePoint" />
            <mxPoint x="110" y="219.5" as="targetPoint" />
          </mxGeometry>
        </mxCell>
        <mxCell id="-A6Hnksh4mpt81NmAGqT-13" style="edgeStyle=orthogonalEdgeStyle;rounded=0;orthogonalLoop=1;jettySize=auto;html=1;exitX=0.5;exitY=1;exitDx=0;exitDy=0;endArrow=open;endFill=0;" edge="1" parent="1" source="-A6Hnksh4mpt81NmAGqT-6">
          <mxGeometry relative="1" as="geometry">
            <mxPoint x="450.31578947368416" y="500" as="targetPoint" />
          </mxGeometry>
        </mxCell>
        <mxCell id="-A6Hnksh4mpt81NmAGqT-15" value="[no valid location(s) found]" style="edgeLabel;html=1;align=center;verticalAlign=middle;resizable=0;points=[];" vertex="1" connectable="0" parent="-A6Hnksh4mpt81NmAGqT-13">
          <mxGeometry x="-0.0748" y="2" relative="1" as="geometry">
            <mxPoint x="65" y="9" as="offset" />
          </mxGeometry>
        </mxCell>
        <mxCell id="-A6Hnksh4mpt81NmAGqT-6" value="Process&amp;nbsp;" style="rounded=1;whiteSpace=wrap;html=1;" vertex="1" parent="1">
          <mxGeometry x="390" y="370" width="120" height="60" as="geometry" />
        </mxCell>
        <mxCell id="-A6Hnksh4mpt81NmAGqT-12" value="Location Processing" style="text;html=1;align=center;verticalAlign=middle;resizable=0;points=[];autosize=1;strokeColor=none;fillColor=none;" vertex="1" parent="1">
          <mxGeometry x="345" y="150" width="130" height="30" as="geometry" />
        </mxCell>
        <mxCell id="-A6Hnksh4mpt81NmAGqT-16" style="edgeStyle=orthogonalEdgeStyle;rounded=0;orthogonalLoop=1;jettySize=auto;html=1;entryX=0.5;entryY=0;entryDx=0;entryDy=0;endArrow=open;endFill=0;" edge="1" parent="1" source="-A6Hnksh4mpt81NmAGqT-14" target="-A6Hnksh4mpt81NmAGqT-1">
          <mxGeometry relative="1" as="geometry">
            <Array as="points">
              <mxPoint x="600" y="530" />
              <mxPoint x="600" y="130" />
              <mxPoint x="170" y="130" />
            </Array>
          </mxGeometry>
        </mxCell>
        <mxCell id="-A6Hnksh4mpt81NmAGqT-17" value="[reject, continue]" style="edgeLabel;html=1;align=center;verticalAlign=middle;resizable=0;points=[];" vertex="1" connectable="0" parent="-A6Hnksh4mpt81NmAGqT-16">
          <mxGeometry x="0.1164" y="-2" relative="1" as="geometry">
            <mxPoint x="103" y="212" as="offset" />
          </mxGeometry>
        </mxCell>
        <mxCell id="-A6Hnksh4mpt81NmAGqT-14" value="No Locations Displayed" style="rounded=1;whiteSpace=wrap;html=1;" vertex="1" parent="1">
          <mxGeometry x="390" y="500" width="120" height="60" as="geometry" />
        </mxCell>
        <mxCell id="-A6Hnksh4mpt81NmAGqT-37" style="edgeStyle=orthogonalEdgeStyle;rounded=0;orthogonalLoop=1;jettySize=auto;html=1;entryX=0.5;entryY=0;entryDx=0;entryDy=0;endArrow=open;endFill=0;" edge="1" parent="1" source="-A6Hnksh4mpt81NmAGqT-18" target="-A6Hnksh4mpt81NmAGqT-36">
          <mxGeometry relative="1" as="geometry" />
        </mxCell>
        <mxCell id="-A6Hnksh4mpt81NmAGqT-18" value="Display Locations" style="rounded=1;whiteSpace=wrap;html=1;" vertex="1" parent="1">
          <mxGeometry x="240" y="500" width="120" height="60" as="geometry" />
        </mxCell>
        <mxCell id="-A6Hnksh4mpt81NmAGqT-31" style="edgeStyle=orthogonalEdgeStyle;rounded=0;orthogonalLoop=1;jettySize=auto;html=1;entryX=0.5;entryY=1;entryDx=0;entryDy=0;endArrow=open;endFill=0;" edge="1" parent="1" source="-A6Hnksh4mpt81NmAGqT-1" target="-A6Hnksh4mpt81NmAGqT-1">
          <mxGeometry relative="1" as="geometry">
            <Array as="points">
              <mxPoint x="250" y="230" />
              <mxPoint x="250" y="270" />
              <mxPoint x="170" y="270" />
            </Array>
          </mxGeometry>
        </mxCell>
        <mxCell id="-A6Hnksh4mpt81NmAGqT-32" value="[reject, invalid conditions]" style="edgeLabel;html=1;align=center;verticalAlign=middle;resizable=0;points=[];" vertex="1" connectable="0" parent="-A6Hnksh4mpt81NmAGqT-31">
          <mxGeometry x="0.1922" y="11" relative="1" as="geometry">
            <mxPoint x="-9" y="1" as="offset" />
          </mxGeometry>
        </mxCell>
        <mxCell id="-A6Hnksh4mpt81NmAGqT-43" style="edgeStyle=orthogonalEdgeStyle;rounded=0;orthogonalLoop=1;jettySize=auto;html=1;exitX=1;exitY=0.5;exitDx=0;exitDy=0;endArrow=open;endFill=0;" edge="1" parent="1" source="-A6Hnksh4mpt81NmAGqT-36" target="-A6Hnksh4mpt81NmAGqT-38">
          <mxGeometry relative="1" as="geometry" />
        </mxCell>
        <mxCell id="-A6Hnksh4mpt81NmAGqT-36" value="request KMLs" style="rounded=1;whiteSpace=wrap;html=1;" vertex="1" parent="1">
          <mxGeometry x="240" y="620" width="120" height="60" as="geometry" />
        </mxCell>
        <mxCell id="-A6Hnksh4mpt81NmAGqT-45" style="edgeStyle=orthogonalEdgeStyle;rounded=0;orthogonalLoop=1;jettySize=auto;html=1;exitX=1;exitY=0.5;exitDx=0;exitDy=0;entryX=0;entryY=0.5;entryDx=0;entryDy=0;endArrow=open;endFill=0;" edge="1" parent="1" source="-A6Hnksh4mpt81NmAGqT-38" target="-A6Hnksh4mpt81NmAGqT-41">
          <mxGeometry relative="1" as="geometry" />
        </mxCell>
        <mxCell id="-A6Hnksh4mpt81NmAGqT-38" value="convert to KMLs" style="rounded=1;whiteSpace=wrap;html=1;" vertex="1" parent="1">
          <mxGeometry x="400" y="620" width="120" height="60" as="geometry" />
        </mxCell>
        <mxCell id="-A6Hnksh4mpt81NmAGqT-49" style="edgeStyle=orthogonalEdgeStyle;rounded=0;orthogonalLoop=1;jettySize=auto;html=1;exitX=1;exitY=0.5;exitDx=0;exitDy=0;endArrow=open;endFill=0;" edge="1" parent="1" source="-A6Hnksh4mpt81NmAGqT-41">
          <mxGeometry relative="1" as="geometry">
            <mxPoint x="775" y="650" as="targetPoint" />
            <mxPoint x="735" y="650" as="sourcePoint" />
          </mxGeometry>
        </mxCell>
        <mxCell id="-A6Hnksh4mpt81NmAGqT-41" value="save KMLs" style="rounded=1;whiteSpace=wrap;html=1;" vertex="1" parent="1">
          <mxGeometry x="610" y="620" width="120" height="60" as="geometry" />
        </mxCell>
        <mxCell id="-A6Hnksh4mpt81NmAGqT-46" value="Generate KMLs" style="text;html=1;align=center;verticalAlign=middle;resizable=0;points=[];autosize=1;strokeColor=none;fillColor=none;" vertex="1" parent="1">
          <mxGeometry x="335" y="590" width="110" height="30" as="geometry" />
        </mxCell>
        <mxCell id="-A6Hnksh4mpt81NmAGqT-48" value="" style="html=1;verticalAlign=bottom;startArrow=circle;startFill=1;endArrow=none;startSize=6;endSize=8;curved=0;rounded=0;entryX=1;entryY=0.5;entryDx=0;entryDy=0;endFill=0;" edge="1" parent="1">
          <mxGeometry width="80" relative="1" as="geometry">
            <mxPoint x="790" y="649.85" as="sourcePoint" />
            <mxPoint x="750" y="649.85" as="targetPoint" />
          </mxGeometry>
        </mxCell>
        <mxCell id="-A6Hnksh4mpt81NmAGqT-51" value="[exit]" style="edgeLabel;html=1;align=center;verticalAlign=middle;resizable=0;points=[];" vertex="1" connectable="0" parent="-A6Hnksh4mpt81NmAGqT-48">
          <mxGeometry x="0.5175" y="-5" relative="1" as="geometry">
            <mxPoint x="-10" y="-5" as="offset" />
          </mxGeometry>
        </mxCell>
      </root>
    </mxGraphModel>
  </diagram>
</mxfile>
